DataType=double
version=3
OpenSimVersion=4.2
endheader
time	ground_force_r_vx	ground_force_r_vy	ground_force_r_vz	ground_force_r_px	ground_force_r_py	ground_force_r_pz	ground_force_l_vx	ground_force_l_vy	ground_force_l_vz	ground_force_l_px	ground_force_l_py	ground_force_l_pz	ground_torque_r_x	ground_torque_r_y	ground_torque_r_z	ground_torque_l_x	ground_torque_l_y	ground_torque_l_z
0.868	-4.281184306509557	2.10639800800538	0	0	0	0	0	0	0	0	0	0	0	0	0.07985529668150587	0	0	0
0.869360183344085	-10.87057078976752	5.031399607425837	0	0	0	0	0	0	0	0	0	0	0	0	0.08950893957460675	0	0	0
0.87072036668817	-25.647066156524	11.80498886750808	0	0	0	0	0	0	0	0	0	0	0	0	0.05367519878483587	0	0	0
0.872080550032255	-56.21802275748922	26.46012794023311	0	0	0	0	0	0	0	0	0	0	0	0	0.02412100546628901	0	0	0
0.8734407333763401	-106.0192341599544	52.00565922064678	0	0	0	0	0	0	0	0	0	0	0	0	0.1288471134839445	0	0	0
0.874800916720425	-167.1468431301104	86.16104895962113	0	0	0	0	0	0	0	0	0	0	0	0	0.5203344305496458	0	0	0
0.8761611000645101	-243.0878193947075	133.276335051078	0	0	0	0	0	0	0	0	0	0	0	0	1.283236401147361	0	0	0
0.8775212834085951	-373.7570730187911	224.4426775095758	0	0	0	0	0	0	0	0	0	0	0	0	2.742144278393146	0	0	0
0.8788814667526801	-523.5928610570309	359.374233700858	0	0	0	0	0	0	0	0	0	0	0	0	5.718459301115829	0	0	0
0.8802416500967651	-616.1010470775118	502.1355416579712	0	0	0	0	0	0	0	0	0	0	0	0	10.48897705876556	0	0	0
0.8816018334408502	-652.8386989356178	638.5346836792977	0	0	0	0	0	0	0	0	0	0	0	0	16.72323305736071	0	0	0
0.8829620167849352	-647.6101997808349	783.5788285041967	0	0	0	0	0	0	0	0	0	0	0	0	25.26455704576313	0	0	0
0.8843222001290202	-426.0198719005849	959.3905984254451	0	0	0	0	0	0	0	0	0	0	0	0	38.45338087244365	0	0	0
0.8856823834731052	-419.6157084239879	1152.93114024791	0	0	0	0	0	0	0	0	0	0	0	0	49.94466546047584	0	0	0
0.8870425668171903	-315.3598009348158	1326.242869110245	0	0	0	0	0	0	0	0	0	0	0	0	61.64670947794571	0	0	0
0.8884027501612752	-264.8686889934861	1455.455160064374	0	0	0	0	0	0	0	0	0	0	0	0	70.59572189209747	0	0	0
0.8897629335053603	-176.4421679836472	1547.15500591343	0	0	0	0	0	0	0	0	0	0	0	0	78.99619505136928	0	0	0
0.8911231168494453	-164.5096850620787	1611.462595478342	0	0	0	0	0	0	0	0	0	0	0	0	87.30354605207637	0	0	0
0.8924833001935303	-98.58017948265227	1655.524239954808	0	0	0	0	0	0	0	0	0	0	0	0	96.80417231047133	0	0	0
0.8938434835376153	-96.78777383765578	1688.101514520253	0	0	0	0	0	0	0	0	0	0	0	0	106.1620753523699	0	0	0
0.8952036668817004	-59.42951983762553	1699.799032551772	0	0	0	0	0	0	0	0	0	0	0	0	115.7526196169648	0	0	0
0.8965638502257853	-89.74393162119362	1700.033768832186	0	0	0	0	0	0	0	0	0	0	0	0	125.2467219887279	0	0	0
0.8979240335698704	-53.79808837116407	1706.195124783156	0	0	0	0	0	0	0	0	0	0	0	0	137.1008430618704	0	0	0
0.8992842169139554	-89.76059671923176	1711.940282210677	0	0	0	0	0	0	0	0	0	0	0	0	149.7442812578728	0	0	0
0.9006444002580404	-96.30508066548913	1711.085649021004	0	0	0	0	0	0	0	0	0	0	0	0	161.5482581957358	0	0	0
0.9020045836021254	-157.5211816090146	1711.031263461035	0	0	0	0	0	0	0	0	0	0	0	0	170.9747660297377	0	0	0
0.9033647669462105	-166.9948683515393	1707.159211037658	0	0	0	0	0	0	0	0	0	0	0	0	179.660070896353	0	0	0
0.9047249502902954	-232.0135260760046	1693.206281903575	0	0	0	0	0	0	0	0	0	0	0	0	186.8959208647661	0	0	0
0.9060851336343805	-240.7014170793855	1675.339616610797	0	0	0	0	0	0	0	0	0	0	0	0	193.8427837233132	0	0	0
0.9074453169784655	-292.8681002272586	1653.054553549299	0	0	0	0	0	0	0	0	0	0	0	0	199.7312148977383	0	0	0
0.9088055003225506	-294.5066519218001	1631.747609560561	0	0	0	0	0	0	0	0	0	0	0	0	205.9595586985329	0	0	0
0.9101656836666355	-331.0741875440997	1614.58781460911	0	0	0	0	0	0	0	0	0	0	0	0	211.8108855513359	0	0	0
0.9115258670107206	-320.9593691815923	1600.349769281214	0	0	0	0	0	0	0	0	0	0	0	0	218.1842962101842	0	0	0
0.9128860503548056	-330.2518756883717	1590.164318988266	0	0	0	0	0	0	0	0	0	0	0	0	224.4233079597589	0	0	0
0.9142462336988906	-308.0009830106943	1583.607191962903	0	0	0	0	0	0	0	0	0	0	0	0	232.2678464074099	0	0	0
0.9156064170429756	-295.1687934845866	1576.727212935666	0	0	0	0	0	0	0	0	0	0	0	0	240.0360419363744	0	0	0
0.9169666003870607	-272.7884619849582	1575.798449312224	0	0	0	0	0	0	0	0	0	0	0	0	248.3398259136891	0	0	0
0.9183267837311456	-255.3724630332421	1580.027282405866	0	0	0	0	0	0	0	0	0	0	0	0	256.3241687508416	0	0	0
0.9196869670752307	-232.1135817062322	1587.177603835348	0	0	0	0	0	0	0	0	0	0	0	0	264.4408962627426	0	0	0
0.9210471504193157	-216.8520688804693	1592.206424748948	0	0	0	0	0	0	0	0	0	0	0	0	271.2606838203699	0	0	0
0.9224073337634007	-201.5000535222087	1606.176816642215	0	0	0	0	0	0	0	0	0	0	0	0	276.6712561369046	0	0	0
0.9237675171074857	-182.7910017530608	1618.452728979338	0	0	0	0	0	0	0	0	0	0	0	0	280.3241152096361	0	0	0
0.9251277004515708	-166.1533514544855	1628.614448363211	0	0	0	0	0	0	0	0	0	0	0	0	283.8728122301506	0	0	0
0.9264878837956557	-153.4881601171916	1640.707876768248	0	0	0	0	0	0	0	0	0	0	0	0	287.7828121251271	0	0	0
0.9278480671397408	-137.1573688436848	1655.190122709285	0	0	0	0	0	0	0	0	0	0	0	0	292.1798925772787	0	0	0
0.9292082504838258	-119.4313062745721	1670.350513660031	0	0	0	0	0	0	0	0	0	0	0	0	296.7410631844156	0	0	0
0.9305684338279108	-101.7343035532699	1684.594278596786	0	0	0	0	0	0	0	0	0	0	0	0	301.1821846457747	0	0	0
0.9319286171719958	-85.28462078231277	1697.316540905622	0	0	0	0	0	0	0	0	0	0	0	0	305.3430610590919	0	0	0
0.9332888005160809	-68.48629028874106	1707.52823043273	0	0	0	0	0	0	0	0	0	0	0	0	309.0545533976744	0	0	0
0.9346489838601659	-51.72667960304101	1715.103577978854	0	0	0	0	0	0	0	0	0	0	0	0	312.2636025677947	0	0	0
0.9360091672042509	-35.08754849911528	1720.943174799468	0	0	0	0	0	0	0	0	0	0	0	0	315.1118333216331	0	0	0
0.9373693505483359	-18.79292624964342	1725.011207446118	0	0	0	0	0	0	0	0	0	0	0	0	317.5856238204527	0	0	0
0.938729533892421	-2.452427648934776	1727.169586214891	0	0	0	0	0	0	0	0	0	0	0	0	319.7024371529733	0	0	0
0.9400897172365059	13.3501306854383	1727.317683558013	0	0	0	0	0	0	0	0	0	0	0	0	321.4503210136462	0	0	0
0.941449900580591	28.75225317921451	1725.873126884465	0	0	0	0	0	0	0	0	0	0	0	0	322.882833185595	0	0	0
0.942810083924676	43.69446371272713	1723.278302589946	0	0	0	0	0	0	0	0	0	0	0	0	324.0534659173524	0	0	0
0.944170267268761	58.5423567902543	1718.39983035262	0	0	0	0	0	0	0	0	0	0	0	0	324.7535584513892	0	0	0
0.945530450612846	71.95071226310496	1711.589808425298	0	0	0	0	0	0	0	0	0	0	0	0	324.9911652588727	0	0	0
